<?xml version="1.0" standalone="no"?>
<!DOCTYPE svg PUBLIC "-//W3C//DTD SVG 20010904//EN"
 "http://www.w3.org/TR/2001/REC-SVG-20010904/DTD/svg10.dtd">
<svg version="1.0" xmlns="http://www.w3.org/2000/svg"
 width="120.000000pt" height="120.000000pt" viewBox="0 0 120.000000 120.000000"
 preserveAspectRatio="xMidYMid meet">
<metadata>
Created by potrace 1.15, written by Peter Selinger 2001-2017
</metadata>
<g transform="translate(0.000000,120.000000) scale(0.100000,-0.100000)"
fill="#000000" stroke="none">
<path d="M325 1022 c-48 -30 -84 -86 -96 -149 -18 -94 -3 -171 53 -279 65
-125 258 -323 383 -394 79 -45 81 -45 175 -45 108 0 148 16 188 75 33 50 38
78 17 116 -28 53 -154 174 -180 174 -12 0 -43 -16 -68 -35 -25 -19 -51 -35
-57 -35 -14 0 -109 62 -132 87 -49 52 -72 83 -87 120 -6 11 -15 24 -20 28 -17
10 -14 17 29 65 30 33 40 53 40 79 0 30 -11 45 -90 123 -49 48 -97 88 -107 88
-10 0 -32 -8 -48 -18z m131 -107 c40 -42 74 -81 74 -87 0 -6 -18 -35 -41 -64
l-40 -53 25 -53 c14 -29 33 -62 43 -73 10 -11 31 -36 46 -57 16 -20 54 -54 85
-75 31 -21 59 -41 62 -44 3 -4 15 -9 27 -13 18 -6 33 2 72 39 54 50 58 50 102
1 15 -17 45 -50 68 -74 47 -49 49 -61 19 -103 -29 -39 -60 -55 -125 -64 -107
-14 -223 45 -366 187 -78 78 -156 167 -167 192 -3 6 -17 31 -32 56 -56 95 -66
221 -22 296 18 32 58 63 82 64 7 0 47 -34 88 -75z"/>
</g>
</svg>
