<?xml version="1.0" standalone="no"?>
<!DOCTYPE svg PUBLIC "-//W3C//DTD SVG 20010904//EN"
 "http://www.w3.org/TR/2001/REC-SVG-20010904/DTD/svg10.dtd">
<svg version="1.0" xmlns="http://www.w3.org/2000/svg"
 width="120.000000pt" height="120.000000pt" viewBox="0 0 120.000000 120.000000"
 preserveAspectRatio="xMidYMid meet">
<metadata>
Created by potrace 1.15, written by Peter Selinger 2001-2017
</metadata>
<g transform="translate(0.000000,120.000000) scale(0.100000,-0.100000)"
fill="#000000" stroke="none">
<path d="M247 972 l-137 -137 2 -335 3 -335 253 -3 c247 -2 252 -2 252 18 0
19 -6 20 -229 20 -174 0 -230 3 -233 13 -3 10 -3 567 1 590 0 4 59 7 131 7
l129 0 3 128 3 127 214 3 c165 2 216 -1 223 -10 4 -7 8 -142 8 -299 0 -157 3
-289 7 -292 3 -4 12 -2 20 4 10 9 13 75 13 325 l0 314 -262 0 -263 0 -138
-138z m131 -38 l-3 -79 -87 -3 c-49 -1 -88 1 -88 6 0 16 165 171 173 163 4 -4
7 -43 5 -87z"/>
<path d="M648 963 c-2 -9 -21 -26 -43 -37 -33 -17 -41 -27 -43 -54 -4 -40 17
-68 59 -77 24 -5 29 -12 29 -36 0 -35 -22 -39 -47 -9 -23 27 -43 25 -43 -3 0
-26 20 -47 63 -65 15 -6 27 -18 27 -27 0 -21 27 -19 34 3 3 10 19 23 35 29 16
6 37 22 46 37 24 36 8 72 -40 92 -29 12 -35 19 -35 44 0 38 22 39 45 4 15 -23
19 -25 32 -11 20 19 2 49 -43 70 -18 9 -35 25 -39 36 -8 25 -32 28 -37 4z"/>
<path d="M885 378 c-98 -95 -181 -174 -186 -176 -14 -6 -11 -119 4 -124 10 -3
44 -3 99 1 9 0 99 82 200 181 l183 181 -58 54 c-31 30 -59 55 -62 55 -2 0 -83
-78 -180 -172z m123 3 c12 -11 22 -23 22 -27 0 -4 -55 -61 -122 -126 -99 -95
-128 -118 -148 -116 -35 4 -38 45 -7 78 67 70 217 210 224 210 4 -1 18 -9 31
-19z"/>
<path d="M430 500 c-191 -4 -225 -7 -225 -20 0 -13 36 -15 254 -18 245 -2 292
2 266 27 -17 15 -62 17 -295 11z"/>
</g>
</svg>
