<?xml version="1.0" standalone="no"?>
<!DOCTYPE svg PUBLIC "-//W3C//DTD SVG 20010904//EN"
 "http://www.w3.org/TR/2001/REC-SVG-20010904/DTD/svg10.dtd">
<svg version="1.0" xmlns="http://www.w3.org/2000/svg"
 width="120.000000pt" height="120.000000pt" viewBox="0 0 120.000000 120.000000"
 preserveAspectRatio="xMidYMid meet">
<metadata>
Created by potrace 1.15, written by Peter Selinger 2001-2017
</metadata>
<g transform="translate(0.000000,120.000000) scale(0.100000,-0.100000)"
fill="#000000" stroke="none">
<path d="M197 1018 c-7 -44 -7 -476 0 -510 l5 -28 269 0 269 0 0 125 0 125 40
0 40 0 0 -125 0 -125 115 0 115 0 0 170 c0 161 -1 170 -19 170 -18 0 -19 5
-14 55 5 51 4 57 -21 80 -34 32 -83 33 -121 3 -25 -19 -27 -26 -23 -75 4 -49
3 -54 -17 -59 -12 -3 -37 -4 -56 -2 l-34 3 -5 110 -5 110 -266 3 -267 2 -5
-32z m511 -100 c3 -98 3 -98 -21 -98 -17 0 -41 18 -78 60 -52 57 -79 74 -79
48 1 -7 25 -38 55 -68 47 -47 55 -61 55 -92 0 -37 1 -38 34 -38 l35 0 3 -87
c2 -49 1 -98 -1 -110 l-3 -23 -242 0 -241 0 2 252 c1 139 3 254 3 256 0 1 107
1 238 0 l237 -3 3 -97z m312 -265 l0 -143 -85 0 -84 0 -3 123 -3 122 -87 3
c-68 2 -88 6 -88 17 0 16 53 20 242 20 l108 0 0 -142z"/>
<path d="M285 441 c-48 -20 -70 -75 -51 -128 6 -19 4 -23 -12 -23 -24 0 -34
-49 -25 -132 l6 -58 113 0 114 0 0 95 c0 86 -2 95 -19 95 -16 0 -17 6 -13 48
4 45 2 50 -32 80 -38 33 -48 36 -81 23z m113 -249 l3 -63 -87 3 -86 3 0 55 c0
30 0 59 1 63 1 4 38 7 84 5 l82 -3 3 -63z"/>
<path d="M593 430 c-34 -20 -51 -68 -39 -114 4 -18 1 -25 -14 -29 -18 -5 -20
-14 -20 -96 l0 -91 120 0 120 0 0 95 c0 52 -3 94 -7 94 -33 -5 -38 2 -35 51 4
44 1 53 -26 80 -35 35 -55 37 -99 10z m135 -237 l3 -63 -90 0 -89 0 -4 61 c-1
33 -1 63 2 65 2 3 43 3 90 2 l85 -3 3 -62z"/>
<path d="M912 422 c-36 -34 -47 -68 -33 -104 8 -22 7 -27 -10 -31 -17 -5 -19
-15 -19 -96 l0 -91 115 0 115 0 0 91 c0 82 -2 91 -20 96 -17 5 -19 11 -14 45
8 47 -9 84 -48 104 -39 20 -52 18 -86 -14z m136 -229 c3 -71 6 -70 -104 -65
l-74 4 0 64 0 65 88 -3 87 -3 3 -62z"/>
</g>
</svg>
