<?xml version="1.0" standalone="no"?>
<!DOCTYPE svg PUBLIC "-//W3C//DTD SVG 20010904//EN"
 "http://www.w3.org/TR/2001/REC-SVG-20010904/DTD/svg10.dtd">
<svg version="1.0" xmlns="http://www.w3.org/2000/svg"
 width="120.000000pt" height="120.000000pt" viewBox="0 0 120.000000 120.000000"
 preserveAspectRatio="xMidYMid meet">
<metadata>
Created by potrace 1.15, written by Peter Selinger 2001-2017
</metadata>
<g transform="translate(0.000000,120.000000) scale(0.100000,-0.100000)"
fill="#000000" stroke="none">
<path d="M48 1029 c-17 -9 -18 -36 -18 -342 0 -246 3 -336 12 -345 7 -7 26
-12 44 -12 26 0 36 -7 52 -33 24 -41 83 -71 120 -62 36 9 89 50 97 75 6 19 15
20 245 20 l239 0 16 -30 c22 -43 81 -71 129 -60 41 9 82 41 92 72 4 14 16 18
55 18 l49 0 0 124 0 124 -33 39 c-18 21 -45 51 -60 67 -15 16 -43 57 -62 92
l-36 63 -97 3 -97 3 -3 85 c-2 65 -6 88 -19 98 -21 15 -698 17 -725 1z m692
-238 l0 -198 -67 -7 c-76 -7 -580 1 -594 10 -10 6 -13 353 -3 378 5 14 44 16
335 16 l329 0 0 -199z m354 -188 c35 -38 36 -39 36 -125 0 -48 -5 -90 -10 -93
-15 -9 -50 4 -50 20 0 7 -13 27 -29 44 -54 58 -148 36 -191 -43 -9 -18 -21
-26 -34 -24 -20 3 -21 11 -24 117 -1 63 0 121 2 128 4 10 37 13 135 13 l130 0
35 -37z m-804 -93 c0 -39 38 -31 53 13 9 26 25 21 42 -14 18 -34 34 -34 52 2
15 30 37 31 41 2 6 -39 46 -38 53 2 6 28 43 26 47 -2 4 -24 42 -34 42 -10 1
39 43 45 53 6 7 -25 37 -25 44 1 12 45 24 15 21 -52 l-3 -73 -182 -3 -181 -2
-23 32 c-33 46 -60 67 -86 68 -18 0 -23 6 -23 24 0 15 7 26 18 29 23 5 32 -1
32 -23z m4 -102 c19 -27 20 -58 4 -93 -21 -46 -95 -46 -116 0 -29 63 -3 115
58 115 29 0 43 -6 54 -22z m716 4 c30 -24 29 -76 -1 -108 -29 -31 -63 -30 -94
1 -68 67 21 167 95 107z"/>
</g>
</svg>
