<?xml version="1.0" standalone="no"?>
<!DOCTYPE svg PUBLIC "-//W3C//DTD SVG 20010904//EN"
 "http://www.w3.org/TR/2001/REC-SVG-20010904/DTD/svg10.dtd">
<svg version="1.0" xmlns="http://www.w3.org/2000/svg"
 width="120.000000pt" height="120.000000pt" viewBox="0 0 120.000000 120.000000"
 preserveAspectRatio="xMidYMid meet">
<metadata>
Created by potrace 1.15, written by Peter Selinger 2001-2017
</metadata>
<g transform="translate(0.000000,120.000000) scale(0.100000,-0.100000)"
fill="#000000" stroke="none">
<path d="M765 1158 c-2 -7 -5 -26 -7 -42 -4 -42 -50 -57 -82 -27 -12 12 -29
21 -37 21 -14 -1 -49 -29 -82 -67 -17 -20 -17 -21 8 -52 25 -28 26 -33 13 -61
-11 -27 -18 -30 -56 -30 l-43 0 3 -72 3 -73 41 -3 c29 -2 43 -8 47 -20 3 -9 8
-24 11 -32 4 -9 -4 -26 -19 -43 l-26 -27 50 -52 50 -52 27 27 c43 43 73 32 79
-29 4 -50 26 -64 97 -64 70 0 98 21 98 74 0 49 32 58 70 21 l29 -28 52 50 53
51 -28 25 c-26 24 -27 28 -15 61 11 31 17 35 53 38 l41 3 0 70 0 70 -42 3
c-35 3 -43 7 -53 33 -12 28 -11 32 16 60 l28 29 -44 45 c-50 51 -64 54 -96 24
-21 -19 -27 -20 -53 -9 -24 10 -30 19 -33 48 l-3 37 -73 3 c-52 2 -74 -1 -77
-10z m115 -52 c0 -38 8 -46 66 -68 41 -15 42 -15 69 11 l26 26 25 -29 25 -28
-20 -22 c-26 -27 -26 -33 -1 -90 18 -42 22 -46 53 -46 27 0 36 -5 40 -21 9
-33 -1 -46 -41 -53 -33 -5 -40 -12 -58 -55 l-22 -49 24 -23 c30 -28 30 -37 2
-60 -27 -24 -31 -24 -54 2 -14 15 -26 19 -47 15 -28 -6 -29 -4 -23 22 4 15 15
38 25 52 57 79 67 149 32 218 -25 50 -66 80 -123 90 -101 19 -183 -29 -212
-122 -16 -50 -16 -60 -3 -99 8 -23 28 -64 46 -91 31 -49 45 -114 19 -88 -16
16 -43 15 -58 -3 -18 -21 -46 -19 -70 7 l-20 22 29 29 28 29 -20 48 c-18 43
-24 49 -57 54 -33 5 -38 10 -42 36 -6 38 -3 40 44 40 24 0 38 5 38 13 0 7 9
30 19 51 l20 38 -25 26 c-30 33 -30 33 1 62 l25 23 23 -21 c28 -27 40 -27 95
-2 38 17 42 22 42 55 0 34 1 35 40 35 39 0 40 -1 40 -34z m36 -154 c46 -25 68
-61 72 -120 4 -52 1 -61 -30 -102 -19 -25 -40 -66 -48 -92 l-13 -48 -58 0
c-56 0 -59 1 -65 28 -7 28 -42 103 -53 112 -7 6 -26 46 -35 74 -4 11 1 40 10
66 32 90 135 128 220 82z"/>
<path d="M383 964 c-7 -3 -13 -14 -13 -24 0 -11 -10 -20 -26 -24 -45 -12 -118
-95 -134 -151 -7 -28 -22 -60 -33 -73 -19 -20 -19 -26 -9 -56 10 -26 10 -40 1
-59 -21 -47 -1 -81 62 -100 10 -3 19 -21 23 -45 4 -30 18 -52 52 -86 32 -32
44 -52 42 -68 -3 -20 -10 -24 -66 -29 -89 -8 -116 -36 -117 -116 l0 -58 275 0
275 0 3 45 c4 53 -18 102 -54 119 -14 6 -47 11 -74 11 -50 0 -50 0 -50 33 0
26 6 37 25 47 31 16 55 52 70 104 9 31 18 42 40 48 31 8 45 23 45 51 0 23 -22
22 -38 -3 -7 -11 -23 -20 -36 -20 -29 0 -38 -12 -43 -54 -8 -72 -108 -145
-181 -131 -97 18 -134 69 -140 192 -4 65 -2 83 9 84 8 1 52 3 98 5 81 3 101 8
89 20 -3 3 -62 6 -130 8 -68 1 -129 6 -136 10 -32 20 -2 26 126 27 149 1 193
7 200 27 3 9 -31 12 -148 12 l-152 0 7 38 c3 20 15 46 26 57 19 19 19 19 19
-18 0 -30 4 -37 20 -37 16 0 19 8 22 63 2 47 7 62 18 62 11 0 16 -16 20 -60 5
-59 5 -60 38 -63 37 -4 44 16 12 36 -18 11 -21 21 -18 80 l3 67 33 3 c43 4 37
26 -9 29 -19 1 -40 0 -46 -3z m206 -758 c7 -8 11 -34 9 -58 l-3 -43 -67 -3
-68 -3 0 54 c0 29 3 57 7 60 13 13 110 7 122 -7z"/>
</g>
</svg>
